<svg width="9" height="10" viewBox="0 0 9 10" fill="none" xmlns="http://www.w3.org/2000/svg">
<path d="M4.39645 0.146447C4.59171 -0.0488155 4.90829 -0.0488155 5.10355 0.146447L6.60355 1.64645C6.79882 1.84171 6.79882 2.15829 6.60355 2.35355L5.10355 3.85355C4.90829 4.04882 4.59171 4.04882 4.39645 3.85355C4.20118 3.65829 4.20118 3.34171 4.39645 3.14645L5.04289 2.5H4.25C2.47614 2.5 1 3.97614 1 5.75C1 7.52386 2.47614 9 4.25 9C6.02386 9 7.5 7.52386 7.5 5.75C7.5 5.47386 7.72386 5.25 8 5.25C8.27614 5.25 8.5 5.47386 8.5 5.75C8.5 8.07614 6.57614 10 4.25 10C1.92386 10 0 8.07614 0 5.75C0 3.42386 1.92386 1.5 4.25 1.5H5.04289L4.39645 0.853553C4.20118 0.658291 4.20118 0.341709 4.39645 0.146447Z" fill="#2E844A"/>
</svg>
